<svg width="1024" height="1024" viewBox="0 0 1024 1024" fill="none" xmlns="http://www.w3.org/2000/svg">
    <path d="M0,0 L38,0 L66,4 L99,12 L108,16 L119,21 L124,23 L127,26 L141,34 L154,43 L165,52 L177,63 L188,75 L191,78 L196,84 L198,85 L204,96 L211,106 L221,123 L227,139 L234,162 L239,186 L241,202 L242,219 L242,232 L239,260 L236,273 L231,289 L223,312 L212,333 L202,348 L194,358 L180,373 L169,384 L158,393 L154,397 L149,400 L141,406 L124,416 L103,426 L85,429 L59,437 L52,439 L35,440 L6,440 L-17,437 L-40,432 L-49,431 L-71,422 L-87,414 L-102,405 L-106,401 L-113,397 L-128,383 L-138,374 L-147,365 L-158,351 L-168,336 L-178,318 L-182,310 L-186,297 L-192,279 L-196,264 L-199,244 L-200,230 L-200,198 L-196,172 L-190,149 L-182,129 L-179,123 L-177,123 L-175,117 L-166,101 L-156,87 L-146,74 L-138,65 L-128,57 L-118,48 L-108,41 L-99,34 L-82,24 L-60,14 L-39,7 L-16,2 Z M-1,33 L-16,35 L-35,40 L-52,46 L-77,59 L-93,70 L-104,79 L-119,93 L-128,104 L-137,116 L-146,132 L-153,147 L-161,171 L-166,193 L-167,200 L-167,236 L-163,260 L-157,281 L-149,300 L-139,319 L-128,335 L-117,348 L-103,362 L-90,372 L-77,380 L-74,380 L-73,383 L-54,392 L-36,399 L-15,405 L5,408 L36,408 L56,405 L76,400 L96,392 L119,380 L131,372 L136,367 L147,359 L165,341 L175,328 L184,314 L192,299 L205,264 L208,250 L210,228 L209,203 L206,183 L201,163 L197,151 L194,150 L192,140 L182,121 L172,107 L163,96 L145,78 L129,66 L108,53 L92,45 L77,40 L56,35 L43,33 Z " fill="#3B82F6" transform="translate(491,294)" />
    <path d="M0,0 L226,0 L229,5 L239,43 L239,48 L143,48 L144,213 L146,231 L152,253 L162,271 L162,274 L141,274 L126,271 L114,266 L105,259 L96,250 L88,237 L84,224 L84,48 L-13,48 L-11,35 L-4,11 L-2,2 Z " fill="#3B82F6" transform="translate(399,402)" />
</svg>
